<svg width="112" height="121" viewBox="0 0 112 121" fill="none" xmlns="http://www.w3.org/2000/svg">
    <path fill-rule="evenodd" clip-rule="evenodd"
        d="M28.9918 8.73099C1.39475 19.4555 -12.8559 55.954 15.4095 92.7265C98.2596 200.48 176.903 -48.7468 28.9918 8.73099Z"
        fill="#4D2456" />
    <path
        d="M36.0493 26.951C36.0493 23.1543 36.0493 19.3773 36.0493 15.6002C36.0493 13.5062 37.7397 11.5688 39.8429 11.2752C45.8773 10.4533 51.9117 9.6313 57.9461 8.80935C60.0493 8.5158 61.7397 9.98357 61.7397 12.0776C61.7397 15.8546 61.7397 19.6513 61.7397 23.4283C61.7397 25.5223 60.0493 27.4598 57.9461 27.7338C54.2901 28.2426 50.6341 28.7319 46.9584 29.2407C47.4891 32.6263 48.0002 36.012 48.5112 39.3976C46.0739 36.286 43.6365 33.1547 41.1795 30.0235C40.7471 30.1018 40.295 30.1605 39.8429 30.2192C37.7397 30.4932 36.0493 29.045 36.0493 26.951Z"
        fill="#4D2456" />
    <path
        d="M35.5579 26.9512V15.6005C35.5579 14.4263 36.0296 13.3108 36.7962 12.4497C37.5628 11.5886 38.6045 10.9819 39.7839 10.8253L57.8871 8.33992C58.0837 8.32035 58.2802 8.30078 58.4571 8.30078C59.4203 8.30078 60.2851 8.63348 60.9534 9.20101C61.6021 9.76855 62.0542 10.5709 62.1721 11.5103C62.2114 11.6864 62.2311 11.8821 62.2311 12.0778V23.4286C62.2311 24.6028 61.7593 25.7183 60.9928 26.5794C60.2262 27.4405 59.1647 28.0471 58.005 28.2037L47.5087 29.6519L48.9829 39.3392C49.0222 39.5936 48.8453 39.8284 48.5898 39.8676C48.3932 39.9067 48.2163 39.8089 48.1181 39.6523L40.9829 30.5326L39.9018 30.6891C39.7053 30.7087 39.5087 30.7283 39.3318 30.7283C38.3687 30.7283 37.5038 30.3956 36.8355 29.828C36.1869 29.2605 35.7348 28.4581 35.5972 27.5188C35.5775 27.3231 35.5579 27.1469 35.5579 26.9512ZM36.521 15.6005V26.9512C36.521 27.1078 36.521 27.2448 36.5407 27.3818C36.6389 28.1059 36.9731 28.693 37.4645 29.1039C37.9559 29.5345 38.6045 29.7693 39.3318 29.7693C39.4891 29.7693 39.6267 29.7693 39.7839 29.7498L41.1205 29.5541C41.2778 29.5345 41.4547 29.6128 41.5529 29.7498L47.7643 37.6757L46.4866 29.2996C46.467 29.0452 46.6439 28.8104 46.8994 28.7712L57.8871 27.2643C58.8109 27.1469 59.6561 26.6577 60.2655 25.9531C60.8945 25.2486 61.2679 24.3679 61.2679 23.4286V12.0778C61.2679 11.9213 61.2483 11.7647 61.2483 11.6277C61.15 10.9232 60.8159 10.3361 60.3245 9.90554C59.8331 9.49457 59.1844 9.24015 58.4571 9.24015C58.2999 9.24015 58.1623 9.25972 58.005 9.27929L39.9018 11.7451C38.978 11.8821 38.1328 12.3714 37.5235 13.0759C36.8945 13.7804 36.521 14.6611 36.521 15.6005Z"
        fill="#FBBE07" />
    <path
        d="M77.3072 35.0923C77.3072 31.3152 77.3072 27.5186 77.3072 23.7415C77.3072 21.6475 75.5972 19.6709 73.494 19.3187C67.4596 18.3402 61.4252 17.3616 55.3908 16.3636C53.3072 16.0309 51.5972 17.4399 51.5972 19.5339C51.5972 23.3306 51.5972 27.1076 51.5972 30.8847C51.5972 32.9787 53.3072 34.9553 55.3908 35.3076C55.8429 35.3663 56.295 35.4445 56.747 35.5228C55.5677 36.9515 54.408 38.3605 53.2483 39.7891C56.3343 38.6736 59.4203 37.5777 62.5259 36.4622C66.1819 37.0689 69.838 37.656 73.494 38.2627C75.5972 38.5954 77.3072 37.1863 77.3072 35.0923Z"
        fill="#FBBE07" />
    <path
        d="M31.8232 65.0937C30.2114 65.0937 28.7372 64.4479 27.4203 63.1954C26.2802 62.0604 25.7102 60.7883 25.7102 59.3597C25.7102 57.9506 26.2016 56.5611 27.1648 55.1521L27.4793 54.6237L26.6734 54.0953C24.8257 52.8232 23.9019 51.2771 23.9019 49.4375C23.9019 48.8896 23.9805 48.322 24.1574 47.7349C25.1402 44.0362 27.5186 41.7073 31.2729 40.7484C31.7839 40.6309 32.3146 40.5918 32.8257 40.5918C33.9854 40.5918 35.1254 40.8658 36.2458 41.4529C37.1107 41.903 37.7987 42.5488 38.3294 43.3708C38.7815 44.271 38.9977 45.1125 38.9977 45.9149C38.9977 47.0304 38.5259 48.0481 37.5431 48.9091C36.3245 50.0051 34.8896 50.553 33.2188 50.553C32.2164 50.553 31.4105 50.2399 30.8011 49.6137C30.408 49.1636 30.2114 48.6939 30.2114 48.2242C30.2114 47.3827 30.6635 46.7956 31.548 46.502C31.6856 46.4433 31.8429 46.4237 31.9805 46.4237C32.295 46.4237 32.5898 46.5216 32.8847 46.6977C33.1795 46.8738 33.435 46.9521 33.6906 46.9521C34.0837 46.9521 34.4964 46.7956 34.9289 46.4629C35.263 46.2085 35.4399 45.954 35.4399 45.6605C35.4399 45.4061 35.3023 45.1517 35.0272 44.8777C34.3589 44.3297 33.6512 44.0557 32.8847 44.0557C32.5898 44.0557 32.295 44.0949 31.9805 44.1732C29.7004 44.8385 28.2655 46.3063 27.6365 48.5569C27.5775 48.8309 27.5382 49.0853 27.5382 49.3006C27.5382 50.6705 28.521 51.4924 30.4866 51.786C31.4301 51.923 32.0394 52.0404 32.3343 52.1187C33.0222 52.4122 33.4154 52.7449 33.4743 53.0972C33.5333 53.4494 33.5726 53.6843 33.5726 53.7626C33.5726 54.5258 33.0812 55.1521 32.1181 55.6217C31.0566 56.1306 30.2507 56.8547 29.72 57.794C29.4055 58.342 29.2483 58.8508 29.2483 59.3401C29.2483 59.6924 29.3859 60.0838 29.6807 60.4752C30.2704 61.1993 30.978 61.5515 31.8036 61.5515C32.0394 61.5515 32.3146 61.532 32.5702 61.4732C34.2999 60.8861 35.1451 59.9663 35.1451 58.7138L35.1254 58.1267C35.2434 56.9917 35.8331 56.4046 36.8552 56.3654C37.2483 56.3654 37.6218 56.5024 37.9559 56.7568C38.4277 57.1482 38.6635 57.8136 38.6635 58.7138C38.6635 59.0857 38.6242 59.4575 38.5456 59.8293C37.9363 62.3539 36.4031 63.9978 33.9068 64.7415C33.1795 64.9763 32.4915 65.0937 31.8232 65.0937ZM42.693 65.2699C42.4768 65.2699 42.2409 65.2307 41.9854 65.1524C41.2385 64.8589 40.865 64.3305 40.865 63.5673C40.865 62.9802 42.123 59.9859 44.6193 54.6237C42.005 48.3808 40.5505 45.0734 40.3146 44.7211C39.9805 44.1927 39.8232 43.723 39.8232 43.3121C39.8232 42.8032 40.0394 42.3727 40.4719 42.0009C40.8257 41.7464 41.2188 41.6094 41.6512 41.6094C42.4768 41.6486 43.1451 42.2161 43.6758 43.3316C44.6586 45.6213 45.6414 47.9306 46.5849 50.2399C46.9387 49.7507 48.0198 47.5001 49.8085 43.4882C50.2409 42.3727 50.8503 41.8247 51.6758 41.8247C51.9903 41.8247 52.2851 41.9226 52.58 42.0987C53.1304 42.451 53.3859 42.9207 53.3859 43.4882C53.3859 43.9383 53.209 44.5646 52.8355 45.3278C51.5382 48.1068 50.1426 51.2184 48.6291 54.6824L51.4989 60.5143C52.1082 61.7081 52.4227 62.53 52.4227 63.0193C52.4227 63.6455 52.1082 64.1544 51.4989 64.4871C51.2041 64.6241 50.9289 64.6828 50.693 64.6828C50.0837 64.6828 49.5726 64.3501 49.1402 63.6651C48.6881 62.8627 48.2557 62.0408 47.8822 61.2188C47.4891 60.3969 47.0763 59.5749 46.6242 58.7726C45.2679 61.7668 44.5603 63.3911 44.5014 63.626C44.01 64.7219 43.4006 65.2699 42.693 65.2699ZM66.1623 66.7572C65.5726 66.7376 65.1402 66.5419 64.8257 66.1897C64.5112 65.8178 64.3539 65.3677 64.3343 64.8002L64.295 62.1778C63.4104 62.4713 62.5063 62.7257 61.6218 62.9802C61.091 63.1171 60.5014 63.1954 59.892 63.1954C59.3613 63.1954 58.8306 63.1367 58.2999 63.0193C56.2163 62.4909 55.1549 61.2775 55.1549 59.3401C55.1549 58.616 55.3711 57.8723 55.8232 57.1287C57.1598 55.1325 59.4203 54.017 62.6242 53.8017L64.7667 53.7039C64.8257 52.9993 64.8453 52.3144 64.8453 51.6294C64.7274 47.1087 64.0591 44.8581 62.8404 44.8581C62.3883 44.8581 61.8576 45.1125 61.2483 45.6605C59.4203 47.2261 58.1033 49.1636 57.2778 51.4337C56.924 52.6471 56.295 53.2342 55.3711 53.2342C55.2532 53.2342 55.1353 53.2342 55.037 53.2146C54.1721 52.9406 53.7397 52.3339 53.7397 51.4141C53.7397 51.0814 53.779 50.7683 53.8969 50.4552C54.8797 47.5001 56.5505 45.0342 58.9289 43.0381C60.3245 41.903 61.6807 41.3159 62.9977 41.2963C64.3343 41.2963 65.494 41.903 66.4768 43.1164C67.7544 44.956 68.4031 47.7154 68.4031 51.4141C68.4031 52.1578 68.2655 55.4065 68.0296 61.1797C67.9903 62.7649 67.9117 64.0565 67.8331 65.0546C67.6758 66.1505 67.1058 66.7181 66.1623 66.7572ZM59.6955 59.6728L60.0689 59.6336C61.6611 59.4575 63.1156 59.0857 64.4129 58.5573L64.4522 57.4222C63.9215 57.3244 63.4891 57.2852 63.2139 57.2852C62.0738 57.2852 60.9731 57.5396 59.951 58.0289C59.263 58.4007 58.9289 58.7921 58.9289 59.1835C58.9289 59.4966 59.1844 59.6728 59.6955 59.6728ZM88.3736 64.4284C87.3318 64.3892 86.7815 63.8217 86.7225 62.7257C86.7225 60.8274 86.8208 57.8136 86.9977 53.6451L87.037 51.7468C87.037 49.9659 86.8994 49.0657 86.6045 49.0657C85.9166 49.0657 85.15 51.9034 84.2655 57.5983L83.7741 60.9448C83.5775 62.2169 82.9485 62.8627 81.9461 62.8627C80.7864 62.7649 80.1967 62.0408 80.1967 60.6513C80.0001 51.1402 79.6267 46.365 79.1156 46.365C78.8208 46.365 78.4276 47.0304 77.9362 48.3808C76.8552 51.3946 76.2458 55.9349 76.0689 62.0212C76.01 63.4694 75.4203 64.2326 74.2999 64.3501C73.4154 64.3501 72.8257 63.9391 72.5308 63.0976C72.3146 62.3343 72.1574 61.5711 72.0394 60.7883C70.9387 55.3086 70.2704 50.1225 70.0345 45.2495C70.0345 44.8581 70.1132 44.4863 70.2507 44.0949C70.3883 43.723 70.6046 43.4295 70.8994 43.2338C71.1942 43.0381 71.5087 42.9402 71.8429 42.9402C72.806 42.9794 73.3564 43.5078 73.5136 44.545L74.0247 49.9659C75.1844 46.4042 76.0886 44.2319 76.7176 43.4295C77.4842 42.5684 78.3097 42.1378 79.2139 42.1378C80.2557 42.1574 81.1402 42.7054 81.8281 43.8013C82.2999 44.6624 82.7323 45.9736 83.1254 47.7349C83.5186 46.9717 83.8724 46.365 84.2065 45.9149C85.0321 44.5254 85.9559 43.8405 86.978 43.8405C87.8625 43.8405 88.6095 44.2319 89.2188 45.0147C89.8674 46.0519 90.2213 47.187 90.2606 48.4199C90.3588 49.5941 90.3982 50.8857 90.3982 52.3144C90.3785 55.5239 90.3392 58.6356 90.2606 61.6102C90.2606 63.489 89.6316 64.4284 88.3736 64.4284Z"
        fill="white" />
    <path
        d="M32.6094 98.6174C31.8625 98.6174 31.2531 98.226 30.7421 97.4432C30.5652 97.0518 30.4472 96.68 30.3883 96.2886C29.1696 91.8657 28.5602 87.2471 28.5602 82.4133C28.5602 79.3995 28.7372 76.2291 29.091 72.9217L28.0885 72.8239C26.9485 72.5107 26.3391 71.8258 26.2998 70.7494C26.2998 68.9685 28.2654 68.0879 32.1966 68.0879C33.5725 68.0879 34.9485 68.2444 36.3244 68.5771C40.4325 69.7709 43.0664 72.452 44.2064 76.5814C44.3637 77.3055 44.4423 78.01 44.4423 78.7145C44.4423 79.9866 44.1868 81.2391 43.6757 82.4524C42.005 86.4448 39.1745 89.2629 35.1843 90.8872C34.8109 91.0633 34.3588 91.2786 33.7887 91.533C34.4571 94.6251 34.7912 96.2494 34.7912 96.406C34.7912 96.8953 34.6536 97.3258 34.3784 97.6976C33.946 98.3043 33.3563 98.6174 32.6094 98.6174ZM33.3367 86.8753C33.4743 86.8557 33.6118 86.797 33.7494 86.7187C36.2851 85.6815 38.1327 83.9398 39.3121 81.4739C39.8035 80.4563 40.0394 79.4777 40.0394 78.5775C40.0394 76.8945 39.2531 75.3876 37.661 74.0764C36.5602 73.0783 35.2826 72.589 33.8281 72.589C33.5529 73.6067 33.3367 75.0744 33.1598 77.0315C33.0025 78.9689 32.9239 80.8868 32.9239 82.7655C32.9239 84.6443 33.0025 85.9946 33.1794 86.8362L33.3367 86.8753ZM60.7568 99.6155C60.0295 99.5764 59.4792 99.3415 59.1057 98.911C58.7126 98.4609 58.516 97.8933 58.4964 97.2084L58.4571 93.9597C57.3563 94.3316 56.2556 94.6447 55.1548 94.9578C54.4865 95.1339 53.7789 95.2318 53.0123 95.2318C52.3833 95.2318 51.7347 95.1535 51.0664 94.9969C48.4915 94.3707 47.1942 92.8442 47.1942 90.4567C47.1942 89.576 47.4693 88.6758 48.0001 87.756C49.6512 85.2901 52.462 83.9202 56.3735 83.6462L59.0271 83.5288C59.1057 82.6677 59.145 81.8066 59.145 80.9651C58.9878 75.4071 58.1622 72.6282 56.6487 72.6282C56.0983 72.6282 55.43 72.9609 54.7028 73.6067C52.462 75.5441 50.8109 77.9121 49.7888 80.7498C49.3563 82.2176 48.5897 82.9613 47.4693 82.9613C47.3121 82.9613 47.1745 82.9417 47.0369 82.9221C45.9755 82.5894 45.4251 81.8457 45.4251 80.7107C45.4251 80.2997 45.5037 79.9083 45.6217 79.5169C46.86 75.8964 48.9239 72.8434 51.833 70.3776C53.5627 68.9685 55.2335 68.264 56.8453 68.2444C58.4964 68.2444 59.9313 68.9881 61.1303 70.495C62.7028 72.7456 63.5087 76.1508 63.5087 80.7107C63.5087 81.6109 63.3514 85.6424 63.0369 92.7464C62.9976 94.7034 62.919 96.2886 62.8207 97.5215C62.6045 98.8523 61.9165 99.5568 60.7568 99.6155ZM52.7765 90.8872L53.2482 90.8481C55.2138 90.6132 57.0025 90.1631 58.5947 89.5173L58.634 88.0887C57.9853 87.9908 57.4743 87.9517 57.1008 87.9517C55.7052 87.9517 54.3686 88.2452 53.091 88.8519C52.2458 89.3216 51.833 89.7913 51.833 90.261C51.833 90.6719 52.1475 90.8872 52.7765 90.8872ZM70.8207 96.8953C69.1106 96.8953 68.0295 96.0146 67.5578 94.2337C66.8895 91.3177 66.5553 88.0495 66.5357 84.4486C66.5357 81.2195 66.7126 77.9708 67.1057 74.7222C67.204 74.2134 67.263 73.6458 67.263 73L66.634 73.0391C64.9239 73.0391 64.059 72.3346 64.0394 70.9451C64.0394 70.0058 64.5111 69.3404 65.4546 68.9294C65.946 68.7141 66.8895 68.6163 68.2851 68.6163C72.3735 68.6163 75.9902 69.9862 79.1549 72.7456C82.0246 75.231 83.4399 78.1861 83.4399 81.6109C83.4399 82.609 83.3416 83.6462 83.1057 84.703C82.0639 89.0672 79.6659 92.5507 75.9509 95.1144C74.4177 96.1712 72.7077 96.7778 70.8207 96.8953ZM71.7052 92.3745C75.774 90.8872 78.2114 87.8147 78.9976 83.1374C79.0762 82.6286 79.1155 82.1589 79.1155 81.6892C79.1155 79.5365 78.2507 77.6773 76.5209 76.1312C75.2236 74.9962 73.5922 74.1546 71.6659 73.6458C71.1549 76.7183 70.8993 79.8104 70.8993 82.9221C70.8993 86.0729 71.1549 89.2237 71.7052 92.3745ZM89.7298 97.6976C88.3146 97.6976 87.4497 96.5821 87.0762 94.3511C86.4276 90.124 86.0738 85.7402 86.0541 81.1608C86.0541 77.9904 86.3686 76.1117 87.0173 75.5637C87.4104 75.231 87.8821 75.0549 88.4325 75.0549C89.8084 75.094 90.4964 75.8964 90.5357 77.462C90.575 78.7145 90.6143 79.9866 90.6143 81.2782V82.198C90.6143 86.797 90.9681 91.0242 91.715 94.9187C91.774 95.1927 91.7937 95.4471 91.7937 95.6819C91.7937 96.6408 91.3219 97.2867 90.3784 97.6194C90.1426 97.6781 89.9263 97.6976 89.7298 97.6976ZM88.9632 73.2348C88.059 73.2153 87.3711 72.7652 86.86 71.9041C86.6438 71.4931 86.5455 71.0821 86.5455 70.6711C86.5455 69.6339 86.9779 68.8315 87.8035 68.2444C88.1966 67.99 88.5897 67.853 89.0025 67.853C89.3367 67.853 89.6708 67.9509 89.9853 68.127C90.8305 68.5576 91.263 69.3599 91.263 70.5342C91.2236 71.2387 91.0861 71.7671 90.8305 72.1193C90.3195 72.863 89.7101 73.2348 88.9632 73.2348Z"
        fill="#FBBE07" />
    <path
        d="M62.9191 23.8984C62.6636 23.8397 62.4867 23.6049 62.526 23.3505C62.5653 23.096 62.8208 22.9199 63.0763 22.9591L71.8429 24.3877C72.0985 24.4268 72.2754 24.6617 72.236 24.9357C72.1967 25.1901 71.9412 25.3662 71.6857 25.3271L62.9191 23.8984Z"
        fill="#4D2456" />
    <path
        d="M55.7642 26.9512C55.5087 26.912 55.3318 26.6576 55.3908 26.4032C55.4301 26.1488 55.6856 25.9726 55.9411 26.0314L71.8429 28.8886C72.0984 28.9278 72.2753 29.1626 72.236 29.4366C72.177 29.691 71.9411 29.8476 71.6856 29.8084L55.7642 26.9512Z"
        fill="#4D2456" />
    <path
        d="M55.7642 31.4521C55.5087 31.413 55.3318 31.1586 55.3908 30.9042C55.4301 30.6498 55.6856 30.4736 55.9411 30.5128L71.8429 33.37C72.0984 33.4287 72.2753 33.6636 72.236 33.918C72.177 34.1724 71.9411 34.3485 71.6856 34.3094L55.7642 31.4521Z"
        fill="#4D2456" />
    <path
        d="M57.9263 13.9957C58.1818 13.9565 58.4177 14.1327 58.457 14.3871C58.4963 14.6611 58.3194 14.8959 58.0442 14.9351L40.3931 17.4009C40.1376 17.44 39.9017 17.2639 39.8624 17.0095C39.8231 16.7551 40 16.5007 40.2752 16.4615L57.9263 13.9957Z"
        fill="#FBBE07" />
    <path
        d="M49.2187 19.6514C49.4742 19.6318 49.7101 19.8079 49.7494 20.0624C49.7887 20.3168 49.6118 20.5516 49.3563 20.5908L40.3931 21.902C40.1376 21.9411 39.9017 21.765 39.8624 21.5106C39.8231 21.2366 40 21.0017 40.2555 20.9626L49.2187 19.6514Z"
        fill="#FBBE07" />
    <path
        d="M46.0934 24.5245C46.3685 24.4853 46.6044 24.6615 46.6437 24.9159C46.683 25.1703 46.5061 25.4247 46.2506 25.4639L40.4128 26.4032C40.1572 26.4424 39.9017 26.2662 39.8624 26.0118C39.8231 25.7378 40 25.503 40.2555 25.4639L46.0934 24.5245Z"
        fill="#FBBE07" />
</svg>
    